{
	"asset":{
		"generator":"Khronos glTF Blender I/O v4.0.44",
		"version":"2.0"
	},
	"scene":0,
	"scenes":[
		{
			"name":"Scene",
			"nodes":[
				0,
				9
			]
		}
	],
	"nodes":[
		{
			"name":"Cube"
		},
		{
			"name":"Upper0.001",
			"rotation":[
				0.015146344900131226,
				1.191955902868358e-07,
				5.416765258559053e-09,
				0.9998853206634521
			],
			"scale":[
				1,
				1,
				1.0000001192092896
			],
			"translation":[
				-5.094427568734733e-15,
				1.0440306663513184,
				2.2351741790771484e-08
			]
		},
		{
			"children":[
				1
			],
			"name":"Upper1",
			"rotation":[
				-0.044510070234537125,
				9.779655214716809e-15,
				-1.0612027701029092e-08,
				0.9990089535713196
			],
			"translation":[
				0,
				1.0770330429077148,
				-1.4901161193847656e-08
			]
		},
		{
			"children":[
				2
			],
			"name":"Upper0",
			"rotation":[
				0.8280671834945679,
				-1.716147535223752e-14,
				1.9742657286769827e-07,
				0.5606288909912109
			],
			"scale":[
				1,
				0.9999998807907104,
				0.9999998211860657
			],
			"translation":[
				0,
				0.6000000238418579,
				0
			]
		},
		{
			"name":"Bottom2",
			"rotation":[
				-0.015146330930292606,
				-3.469844825828252e-18,
				-3.611165810823991e-09,
				0.9998853206634521
			],
			"scale":[
				1,
				0.9999999403953552,
				1.0000001192092896
			],
			"translation":[
				1.9618140255752217e-14,
				1.044030785560608,
				-5.21540641784668e-08
			]
		},
		{
			"children":[
				4
			],
			"name":"Bottom1",
			"rotation":[
				0.044510070234537125,
				1.0668714548682078e-14,
				1.0612024148315413e-08,
				0.9990089535713196
			],
			"translation":[
				0,
				1.0770330429077148,
				1.4901161193847656e-08
			]
		},
		{
			"children":[
				5
			],
			"name":"Bottom0",
			"rotation":[
				-0.8280671834945679,
				-1.716147535223752e-14,
				-1.9742657286769827e-07,
				0.5606288909912109
			],
			"scale":[
				1,
				0.9999998807907104,
				0.9999998211860657
			],
			"translation":[
				0,
				0.6000000238418579,
				0
			]
		},
		{
			"children":[
				3,
				6
			],
			"name":"Base",
			"rotation":[
				-0.7071067690849304,
				8.429369557916289e-08,
				-8.429369557916289e-08,
				0.7071067690849304
			]
		},
		{
			"children":[
				7
			],
			"name":"\u30a2\u30fc\u30de\u30c1\u30e5\u30a2"
		},
		{
			"children":[
				8
			],
			"mesh":0,
			"name":"Object",
			"scale":[
				0.1823359876871109,
				0.1823359876871109,
				0.1823359876871109
			]
		}
	],
	"animations":[
		{
			"channels":[
				{
					"sampler":0,
					"target":{
						"node":7,
						"path":"translation"
					}
				},
				{
					"sampler":1,
					"target":{
						"node":7,
						"path":"rotation"
					}
				},
				{
					"sampler":2,
					"target":{
						"node":7,
						"path":"scale"
					}
				},
				{
					"sampler":3,
					"target":{
						"node":3,
						"path":"translation"
					}
				},
				{
					"sampler":4,
					"target":{
						"node":3,
						"path":"rotation"
					}
				},
				{
					"sampler":5,
					"target":{
						"node":3,
						"path":"scale"
					}
				},
				{
					"sampler":6,
					"target":{
						"node":2,
						"path":"translation"
					}
				},
				{
					"sampler":7,
					"target":{
						"node":2,
						"path":"rotation"
					}
				},
				{
					"sampler":8,
					"target":{
						"node":2,
						"path":"scale"
					}
				},
				{
					"sampler":9,
					"target":{
						"node":1,
						"path":"translation"
					}
				},
				{
					"sampler":10,
					"target":{
						"node":1,
						"path":"rotation"
					}
				},
				{
					"sampler":11,
					"target":{
						"node":1,
						"path":"scale"
					}
				},
				{
					"sampler":12,
					"target":{
						"node":6,
						"path":"translation"
					}
				},
				{
					"sampler":13,
					"target":{
						"node":6,
						"path":"rotation"
					}
				},
				{
					"sampler":14,
					"target":{
						"node":6,
						"path":"scale"
					}
				},
				{
					"sampler":15,
					"target":{
						"node":5,
						"path":"translation"
					}
				},
				{
					"sampler":16,
					"target":{
						"node":5,
						"path":"rotation"
					}
				},
				{
					"sampler":17,
					"target":{
						"node":5,
						"path":"scale"
					}
				},
				{
					"sampler":18,
					"target":{
						"node":4,
						"path":"translation"
					}
				},
				{
					"sampler":19,
					"target":{
						"node":4,
						"path":"rotation"
					}
				},
				{
					"sampler":20,
					"target":{
						"node":4,
						"path":"scale"
					}
				},
				{
					"sampler":21,
					"target":{
						"node":8,
						"path":"translation"
					}
				},
				{
					"sampler":22,
					"target":{
						"node":8,
						"path":"rotation"
					}
				},
				{
					"sampler":23,
					"target":{
						"node":8,
						"path":"scale"
					}
				}
			],
			"name":"\u30a2\u30fc\u30de\u30c1\u30e5\u30a2Action",
			"samplers":[
				{
					"input":4,
					"interpolation":"STEP",
					"output":5
				},
				{
					"input":4,
					"interpolation":"STEP",
					"output":6
				},
				{
					"input":4,
					"interpolation":"STEP",
					"output":7
				},
				{
					"input":4,
					"interpolation":"STEP",
					"output":8
				},
				{
					"input":4,
					"interpolation":"STEP",
					"output":9
				},
				{
					"input":4,
					"interpolation":"STEP",
					"output":10
				},
				{
					"input":4,
					"interpolation":"STEP",
					"output":11
				},
				{
					"input":4,
					"interpolation":"STEP",
					"output":12
				},
				{
					"input":4,
					"interpolation":"STEP",
					"output":13
				},
				{
					"input":4,
					"interpolation":"STEP",
					"output":14
				},
				{
					"input":4,
					"interpolation":"STEP",
					"output":15
				},
				{
					"input":4,
					"interpolation":"STEP",
					"output":16
				},
				{
					"input":4,
					"interpolation":"STEP",
					"output":17
				},
				{
					"input":4,
					"interpolation":"STEP",
					"output":18
				},
				{
					"input":4,
					"interpolation":"STEP",
					"output":19
				},
				{
					"input":4,
					"interpolation":"STEP",
					"output":20
				},
				{
					"input":4,
					"interpolation":"STEP",
					"output":21
				},
				{
					"input":4,
					"interpolation":"STEP",
					"output":22
				},
				{
					"input":4,
					"interpolation":"STEP",
					"output":23
				},
				{
					"input":4,
					"interpolation":"STEP",
					"output":24
				},
				{
					"input":4,
					"interpolation":"STEP",
					"output":25
				},
				{
					"input":4,
					"interpolation":"LINEAR",
					"output":26
				},
				{
					"input":4,
					"interpolation":"LINEAR",
					"output":27
				},
				{
					"input":4,
					"interpolation":"LINEAR",
					"output":28
				}
			]
		}
	],
	"materials":[
		{
			"doubleSided":true,
			"name":"Material",
			"pbrMetallicRoughness":{
				"baseColorTexture":{
					"index":0
				},
				"metallicFactor":0,
				"roughnessFactor":0.5
			}
		}
	],
	"meshes":[
		{
			"name":"Object",
			"primitives":[
				{
					"attributes":{
						"POSITION":0,
						"NORMAL":1,
						"TEXCOORD_0":2
					},
					"indices":3,
					"material":0
				}
			]
		}
	],
	"textures":[
		{
			"sampler":0,
			"source":0
		}
	],
	"images":[
		{
			"mimeType":"image/png",
			"name":"PlayerBullet",
			"uri":"PlayerBullet.png"
		}
	],
	"skins":[
		{
			"inverseBindMatrices":29,
			"joints":[
				7,
				3,
				2,
				1,
				6,
				5,
				4
			],
			"name":"\u30a2\u30fc\u30de\u30c1\u30e5\u30a2"
		}
	],
	"accessors":[
		{
			"bufferView":0,
			"componentType":5126,
			"count":52,
			"max":[
				0.19999998807907104,
				2.75,
				0.8999999761581421
			],
			"min":[
				-0.19999998807907104,
				-2.75,
				-1.100000023841858
			],
			"type":"VEC3"
		},
		{
			"bufferView":1,
			"componentType":5126,
			"count":52,
			"type":"VEC3"
		},
		{
			"bufferView":2,
			"componentType":5126,
			"count":52,
			"type":"VEC2"
		},
		{
			"bufferView":3,
			"componentType":5123,
			"count":108,
			"type":"SCALAR"
		},
		{
			"bufferView":4,
			"componentType":5126,
			"count":1,
			"max":[
				0.041666666666666664
			],
			"min":[
				0.041666666666666664
			],
			"type":"SCALAR"
		},
		{
			"bufferView":5,
			"componentType":5126,
			"count":1,
			"type":"VEC3"
		},
		{
			"bufferView":6,
			"componentType":5126,
			"count":1,
			"type":"VEC4"
		},
		{
			"bufferView":7,
			"componentType":5126,
			"count":1,
			"type":"VEC3"
		},
		{
			"bufferView":8,
			"componentType":5126,
			"count":1,
			"type":"VEC3"
		},
		{
			"bufferView":9,
			"componentType":5126,
			"count":1,
			"type":"VEC4"
		},
		{
			"bufferView":10,
			"componentType":5126,
			"count":1,
			"type":"VEC3"
		},
		{
			"bufferView":11,
			"componentType":5126,
			"count":1,
			"type":"VEC3"
		},
		{
			"bufferView":12,
			"componentType":5126,
			"count":1,
			"type":"VEC4"
		},
		{
			"bufferView":13,
			"componentType":5126,
			"count":1,
			"type":"VEC3"
		},
		{
			"bufferView":14,
			"componentType":5126,
			"count":1,
			"type":"VEC3"
		},
		{
			"bufferView":15,
			"componentType":5126,
			"count":1,
			"type":"VEC4"
		},
		{
			"bufferView":16,
			"componentType":5126,
			"count":1,
			"type":"VEC3"
		},
		{
			"bufferView":17,
			"componentType":5126,
			"count":1,
			"type":"VEC3"
		},
		{
			"bufferView":18,
			"componentType":5126,
			"count":1,
			"type":"VEC4"
		},
		{
			"bufferView":19,
			"componentType":5126,
			"count":1,
			"type":"VEC3"
		},
		{
			"bufferView":20,
			"componentType":5126,
			"count":1,
			"type":"VEC3"
		},
		{
			"bufferView":21,
			"componentType":5126,
			"count":1,
			"type":"VEC4"
		},
		{
			"bufferView":22,
			"componentType":5126,
			"count":1,
			"type":"VEC3"
		},
		{
			"bufferView":23,
			"componentType":5126,
			"count":1,
			"type":"VEC3"
		},
		{
			"bufferView":24,
			"componentType":5126,
			"count":1,
			"type":"VEC4"
		},
		{
			"bufferView":25,
			"componentType":5126,
			"count":1,
			"type":"VEC3"
		},
		{
			"bufferView":26,
			"componentType":5126,
			"count":1,
			"type":"VEC3"
		},
		{
			"bufferView":27,
			"componentType":5126,
			"count":1,
			"type":"VEC4"
		},
		{
			"bufferView":28,
			"componentType":5126,
			"count":1,
			"type":"VEC3"
		},
		{
			"bufferView":29,
			"componentType":5126,
			"count":7,
			"type":"MAT4"
		}
	],
	"bufferViews":[
		{
			"buffer":0,
			"byteLength":624,
			"byteOffset":0,
			"target":34962
		},
		{
			"buffer":0,
			"byteLength":624,
			"byteOffset":624,
			"target":34962
		},
		{
			"buffer":0,
			"byteLength":416,
			"byteOffset":1248,
			"target":34962
		},
		{
			"buffer":0,
			"byteLength":216,
			"byteOffset":1664,
			"target":34963
		},
		{
			"buffer":0,
			"byteLength":4,
			"byteOffset":1880
		},
		{
			"buffer":0,
			"byteLength":12,
			"byteOffset":1884
		},
		{
			"buffer":0,
			"byteLength":16,
			"byteOffset":1896
		},
		{
			"buffer":0,
			"byteLength":12,
			"byteOffset":1912
		},
		{
			"buffer":0,
			"byteLength":12,
			"byteOffset":1924
		},
		{
			"buffer":0,
			"byteLength":16,
			"byteOffset":1936
		},
		{
			"buffer":0,
			"byteLength":12,
			"byteOffset":1952
		},
		{
			"buffer":0,
			"byteLength":12,
			"byteOffset":1964
		},
		{
			"buffer":0,
			"byteLength":16,
			"byteOffset":1976
		},
		{
			"buffer":0,
			"byteLength":12,
			"byteOffset":1992
		},
		{
			"buffer":0,
			"byteLength":12,
			"byteOffset":2004
		},
		{
			"buffer":0,
			"byteLength":16,
			"byteOffset":2016
		},
		{
			"buffer":0,
			"byteLength":12,
			"byteOffset":2032
		},
		{
			"buffer":0,
			"byteLength":12,
			"byteOffset":2044
		},
		{
			"buffer":0,
			"byteLength":16,
			"byteOffset":2056
		},
		{
			"buffer":0,
			"byteLength":12,
			"byteOffset":2072
		},
		{
			"buffer":0,
			"byteLength":12,
			"byteOffset":2084
		},
		{
			"buffer":0,
			"byteLength":16,
			"byteOffset":2096
		},
		{
			"buffer":0,
			"byteLength":12,
			"byteOffset":2112
		},
		{
			"buffer":0,
			"byteLength":12,
			"byteOffset":2124
		},
		{
			"buffer":0,
			"byteLength":16,
			"byteOffset":2136
		},
		{
			"buffer":0,
			"byteLength":12,
			"byteOffset":2152
		},
		{
			"buffer":0,
			"byteLength":12,
			"byteOffset":2164
		},
		{
			"buffer":0,
			"byteLength":16,
			"byteOffset":2176
		},
		{
			"buffer":0,
			"byteLength":12,
			"byteOffset":2192
		},
		{
			"buffer":0,
			"byteLength":448,
			"byteOffset":2204
		}
	],
	"samplers":[
		{
			"magFilter":9729,
			"minFilter":9987
		}
	],
	"buffers":[
		{
			"byteLength":2652,
			"uri":"PlayerBullet.bin"
		}
	]
}
