{
	"asset":{
		"generator":"Khronos glTF Blender I/O v4.0.44",
		"version":"2.0"
	},
	"scene":0,
	"scenes":[
		{
			"name":"Scene",
			"nodes":[
				0
			]
		}
	],
	"nodes":[
		{
			"mesh":0,
			"name":"wireSphere",
			"scale":[
				0.49875345826148987,
				0.4987531006336212,
				0.49875327944755554
			]
		}
	],
	"materials":[
		{
			"doubleSided":true,
			"name":"Material",
			"pbrMetallicRoughness":{
				"baseColorTexture":{
					"index":0
				},
				"metallicFactor":0,
				"roughnessFactor":0.5
			}
		}
	],
	"meshes":[
		{
			"name":"\u7403",
			"primitives":[
				{
					"attributes":{
						"POSITION":0,
						"NORMAL":1,
						"TEXCOORD_0":2
					},
					"indices":3,
					"material":0
				}
			]
		}
	],
	"textures":[
		{
			"sampler":0,
			"source":0
		}
	],
	"images":[
		{
			"mimeType":"image/png",
			"name":"wireSphere",
			"uri":"wireSphere.png"
		}
	],
	"accessors":[
		{
			"bufferView":0,
			"componentType":5126,
			"count":20988,
			"max":[
				1.0024996995925903,
				1.002500057220459,
				1.0024993419647217
			],
			"min":[
				-1.0024991035461426,
				-1.002500057220459,
				-1.002500057220459
			],
			"type":"VEC3"
		},
		{
			"bufferView":1,
			"componentType":5126,
			"count":20988,
			"type":"VEC3"
		},
		{
			"bufferView":2,
			"componentType":5126,
			"count":20988,
			"type":"VEC2"
		},
		{
			"bufferView":3,
			"componentType":5123,
			"count":23808,
			"type":"SCALAR"
		}
	],
	"bufferViews":[
		{
			"buffer":0,
			"byteLength":251856,
			"byteOffset":0,
			"target":34962
		},
		{
			"buffer":0,
			"byteLength":251856,
			"byteOffset":251856,
			"target":34962
		},
		{
			"buffer":0,
			"byteLength":167904,
			"byteOffset":503712,
			"target":34962
		},
		{
			"buffer":0,
			"byteLength":47616,
			"byteOffset":671616,
			"target":34963
		}
	],
	"samplers":[
		{
			"magFilter":9729,
			"minFilter":9987
		}
	],
	"buffers":[
		{
			"byteLength":719232,
			"uri":"wireSphere.bin"
		}
	]
}
