# Blender 4.0.2
# www.blender.org
mtllib Bow.mtl
o String
v -0.496751 -0.003124 -0.249937
v -0.496751 -0.000000 -0.246814
v -0.499874 -0.000000 -0.249937
v -0.496751 0.000000 -0.246814
v -0.496751 0.003124 -0.249937
v -0.499874 0.000000 -0.249937
v -0.496751 -0.003124 -0.249937
v -0.499874 -0.000000 -0.249937
v -0.496751 -0.000000 -0.253061
v -0.496751 0.003124 -0.249937
v -0.496751 0.000000 -0.253061
v -0.499874 0.000000 -0.249937
v 0.496751 -0.003124 -0.249937
v 0.499874 -0.000000 -0.249937
v 0.496751 -0.000000 -0.246814
v 0.496751 0.003124 -0.249937
v 0.496751 0.000000 -0.246814
v 0.499874 0.000000 -0.249937
v 0.496751 -0.003124 -0.249937
v 0.496751 -0.000000 -0.253061
v 0.499874 -0.000000 -0.249937
v 0.496751 0.003124 -0.249937
v 0.499874 0.000000 -0.249937
v 0.496751 0.000000 -0.253061
v 0.124969 0.017642 -0.014015
v 0.124969 0.014519 -0.017642
v 0.124969 -0.014519 -0.017642
v 0.124969 -0.017642 -0.014015
v 0.124969 0.014519 0.017642
v 0.124969 0.017642 0.014015
v 0.124969 -0.017642 0.014015
v 0.124969 -0.014519 0.017642
v -0.124969 0.014519 -0.017642
v -0.124969 0.017642 -0.014015
v -0.124969 -0.017642 -0.014015
v -0.124969 -0.014519 -0.017642
v -0.124969 0.017642 0.014015
v -0.124969 0.014519 0.017642
v -0.124969 -0.014519 0.017642
v -0.124969 -0.017642 0.014015
v 0.374906 0.017642 -0.138953
v 0.374906 0.014519 -0.142611
v 0.374906 -0.014519 -0.142611
v 0.374906 -0.017642 -0.138953
v 0.374906 0.014519 -0.107326
v 0.374906 0.017642 -0.110984
v 0.374906 -0.017642 -0.110984
v 0.374906 -0.014519 -0.107326
v 0.497666 0.014519 -0.265371
v 0.496751 0.017642 -0.260769
v 0.499874 0.014519 -0.264456
v 0.497666 -0.014519 -0.265371
v 0.499874 -0.014519 -0.264456
v 0.496751 -0.017642 -0.260769
v 0.497666 0.014519 -0.230086
v 0.499874 0.014519 -0.235419
v 0.496751 0.017642 -0.232859
v 0.497666 -0.014519 -0.230086
v 0.496751 -0.017642 -0.232859
v 0.499874 -0.014519 -0.235419
v -0.374906 0.014519 -0.142611
v -0.374906 0.017642 -0.138953
v -0.374906 -0.017642 -0.138953
v -0.374906 -0.014519 -0.142611
v -0.374906 0.017642 -0.110984
v -0.374906 0.014519 -0.107326
v -0.374906 -0.014519 -0.107326
v -0.374906 -0.017642 -0.110984
v -0.497666 0.014519 -0.265371
v -0.499874 0.014519 -0.264456
v -0.496751 0.017642 -0.260769
v -0.496751 -0.017642 -0.260769
v -0.499874 -0.014519 -0.264456
v -0.497666 -0.014519 -0.265371
v -0.497666 0.014519 -0.230086
v -0.496751 0.017642 -0.232859
v -0.499874 0.014519 -0.235419
v -0.496751 -0.017642 -0.232859
v -0.497666 -0.014519 -0.230086
v -0.499874 -0.014519 -0.235419
vn -0.0000 -0.0000 1.0000
vn 1.0000 -0.0000 -0.0000
vn -0.4472 -0.0000 -0.8944
vn -0.0000 1.0000 -0.0000
vn -1.0000 -0.0000 -0.0000
vn -0.0000 -0.0000 -1.0000
vn -0.0000 -1.0000 -0.0000
vn 0.4472 -0.0000 -0.8944
vn 0.4472 -0.0000 0.8944
vn 0.7071 -0.0000 -0.7071
vn 0.7071 -0.0000 0.7071
vn -0.7071 -0.0000 -0.7071
vn -0.4472 -0.0000 0.8944
vn -0.7071 -0.0000 0.7071
vn -0.5773 -0.5773 0.5774
vn -0.5773 0.5773 0.5774
vn -0.5773 -0.5773 -0.5774
vn -0.5773 0.5773 -0.5774
vn 0.5773 -0.5773 0.5774
vn 0.5773 0.5773 0.5774
vn 0.5773 -0.5773 -0.5774
vn 0.5773 0.5773 -0.5774
vn 0.2149 0.8274 -0.5189
vn 0.2149 -0.8274 -0.5189
vn 0.7886 0.5209 0.3267
vn 0.7886 -0.5209 0.3267
vn -0.2149 0.8274 -0.5189
vn -0.2149 -0.8274 -0.5189
vn -0.7886 0.5209 0.3267
vn -0.7886 -0.5209 0.3267
vn -0.3713 0.9285 -0.0000
vn -0.0000 -0.7071 -0.7071
vn -0.0000 0.7071 -0.7071
vn 0.3713 -0.9285 -0.0000
vn -0.0000 -0.7071 0.7071
vn -0.0000 0.7071 0.7071
vn -0.0000 -0.7578 -0.6525
vn -0.0000 0.7578 0.6525
vn -0.0000 -0.7578 0.6525
vn -0.0000 0.7578 -0.6525
vn 0.3102 0.7204 0.6203
vn -0.3088 0.7233 -0.6176
vn 0.3102 -0.7204 0.6203
vn -0.3088 -0.7233 -0.6176
vn 0.3827 -0.0000 -0.9239
vn 0.9239 -0.0000 0.3827
vn 0.7071 0.7071 -0.0000
vn 0.7071 -0.7071 -0.0000
vn 0.5446 0.6378 0.5446
vn -0.5428 0.6408 -0.5428
vn -0.5428 -0.6408 -0.5428
vn 0.5429 -0.6408 0.5428
vn 0.3101 -0.7204 -0.6203
vn 0.3088 0.7233 -0.6176
vn -0.3102 0.7204 0.6203
vn -0.3089 -0.7233 0.6176
vn -0.7071 -0.7071 -0.0000
vn -0.9239 -0.0000 0.3827
vn -0.3827 -0.0000 -0.9239
vn -0.7071 0.7071 -0.0000
vn -0.5446 0.6378 0.5446
vn -0.5429 -0.6408 0.5428
vn 0.5445 -0.6378 -0.5447
vn 0.5428 0.6408 -0.5428
vn -0.3713 -0.9285 -0.0000
vn 0.3713 0.9285 -0.0000
vn 0.3089 0.7233 0.6176
vn -0.3101 0.7204 -0.6203
vn 0.3089 -0.7233 0.6176
vn -0.3101 -0.7204 -0.6203
vn 0.5429 0.6408 0.5428
vn -0.5445 0.6378 -0.5447
vn -0.5445 -0.6378 -0.5447
vn 0.5446 -0.6378 0.5446
vn 0.3088 -0.7233 -0.6176
vn 0.3101 0.7204 -0.6203
vn -0.3089 0.7233 0.6176
vn -0.3102 -0.7204 0.6203
vn -0.5429 0.6408 0.5428
vn -0.5446 -0.6378 0.5446
vn 0.5428 -0.6408 -0.5428
vn 0.5445 0.6378 -0.5447
vt 0.500000 0.750781
vt 0.500000 0.999219
vt 0.500000 0.750781
vt 0.500000 0.625000
vt 0.500000 0.625000
vt 0.500000 0.625000
vt 0.000000 0.000000
vt 0.874219 0.625000
vt 0.625781 0.625000
vt 0.625781 0.625000
vt 0.500000 0.125000
vt 0.500000 0.125000
vt 0.500000 0.125000
vt 0.500000 0.250781
vt 0.500000 0.499219
vt 0.500000 0.250781
vt 0.125781 0.625000
vt 0.125781 0.750000
vt 0.125000 0.625000
vt 0.500000 0.000000
vt 0.625000 0.125000
vt 0.125781 0.625000
vt 0.125000 0.625000
vt 0.125781 0.500000
vt 0.625000 0.125000
vt 0.500000 0.250000
vt 0.500000 0.125000
vt 0.374219 0.625000
vt 0.375000 0.625000
vt 0.374219 0.750000
vt 0.625000 0.750781
vt 0.500000 0.750000
vt 0.374219 0.625000
vt 0.374219 0.500000
vt 0.375000 0.625000
vt 0.625000 0.499219
vt 0.500000 0.500000
vt 0.500000 0.499219
vt 0.500000 0.000000
vt 0.625000 0.250781
vt 0.500000 0.625000
vt 0.625000 0.999219
vt 0.500000 0.999219
vt 0.874219 0.625000
s 0
usemtl StringMaterial
f 17/1/1 2/2/1 15/3/1
f 23/4/2 14/5/2 21/6/2
f 10/8/4 16/9/4 22/10/4
f 6/11/5 8/12/5 3/13/5
f 11/14/6 20/15/6 9/16/6
f 1/17/15 2/18/15 3/19/15
f 4/20/16 5/21/16 6/11/16
f 7/22/17 8/23/17 9/24/17
f 10/25/18 11/26/18 12/27/18
f 13/28/19 14/29/19 15/30/19
f 16/31/20 17/1/20 18/32/20
f 19/33/21 20/34/21 21/35/21
f 22/36/22 23/37/22 24/38/22
f 1/17/5 8/23/5 7/22/5
f 4/20/14 3/13/14 2/39/14
f 10/25/31 6/11/31 5/21/31
f 9/16/12 12/27/12 11/14/12
f 7/22/32 20/34/32 19/33/32
f 22/36/33 11/14/33 10/40/33
f 21/6/10 24/38/10 23/4/10
f 19/33/34 14/5/34 13/28/34
f 16/9/2 23/4/2 22/10/2
f 15/3/11 18/41/11 17/1/11
f 13/28/35 2/18/35 1/17/35
f 5/42/36 17/1/36 16/31/36
f 19/33/4 1/17/4 7/22/4
f 17/1/1 4/43/1 2/2/1
f 23/4/2 18/41/2 14/5/2
f 10/8/4 5/44/4 16/9/4
f 6/11/5 12/27/5 8/12/5
f 11/14/6 24/38/6 20/15/6
f 1/17/65 3/19/65 8/23/65
f 4/20/14 6/11/14 3/13/14
f 10/25/5 12/27/5 6/11/5
f 9/16/12 8/12/12 12/27/12
f 7/22/32 9/24/32 20/34/32
f 22/36/33 24/38/33 11/14/33
f 21/6/10 20/15/10 24/38/10
f 19/33/2 21/6/2 14/5/2
f 16/9/66 18/41/66 23/4/66
f 15/3/11 14/5/11 18/41/11
f 13/28/35 15/30/35 2/18/35
f 5/42/36 4/43/36 17/1/36
f 19/33/7 13/28/7 1/17/7
usemtl BodyMaterial
f 26/7/3 43/7/3 27/7/3
f 28/7/7 40/7/7 35/7/7
f 36/7/8 61/7/8 33/7/8
f 34/7/4 65/7/4 37/7/4
f 28/7/7 47/7/7 31/7/7
f 34/7/4 30/7/4 25/7/4
f 25/7/4 46/7/4 41/7/4
f 44/7/7 59/7/7 47/7/7
f 29/7/1 39/7/1 32/7/1
f 33/7/6 27/7/6 36/7/6
f 32/7/9 45/7/9 29/7/9
f 64/7/10 69/7/10 61/7/10
f 41/7/4 57/7/4 50/7/4
f 48/7/11 55/7/11 45/7/11
f 51/7/2 60/7/2 53/7/2
f 77/7/5 73/7/5 80/7/5
f 42/7/12 52/7/12 43/7/12
f 38/7/13 67/7/13 39/7/13
f 35/7/7 68/7/7 63/7/7
f 62/7/4 76/7/4 65/7/4
f 66/7/14 79/7/14 67/7/14
f 63/7/7 78/7/7 72/7/7
f 49/7/23 50/7/23 51/7/23
f 52/7/24 53/7/24 54/7/24
f 55/7/25 56/7/25 57/7/25
f 58/7/26 59/7/26 60/7/26
f 69/7/27 70/7/27 71/7/27
f 72/7/28 73/7/28 74/7/28
f 75/7/29 76/7/29 77/7/29
f 78/7/30 79/7/30 80/7/30
f 35/7/37 27/7/37 28/7/37
f 37/7/38 29/7/38 30/7/38
f 31/7/39 39/7/39 40/7/39
f 25/7/40 33/7/40 34/7/40
f 45/7/41 30/7/41 29/7/41
f 26/7/42 41/7/42 42/7/42
f 31/7/43 48/7/43 32/7/43
f 44/7/44 27/7/44 43/7/44
f 53/7/45 49/7/45 51/7/45
f 58/7/46 56/7/46 55/7/46
f 50/7/47 56/7/47 51/7/47
f 54/7/48 60/7/48 59/7/48
f 55/7/49 46/7/49 45/7/49
f 42/7/50 50/7/50 49/7/50
f 54/7/51 43/7/51 52/7/51
f 58/7/52 47/7/52 59/7/52
f 63/7/53 36/7/53 35/7/53
f 62/7/54 33/7/54 61/7/54
f 37/7/55 66/7/55 38/7/55
f 40/7/56 67/7/56 68/7/56
f 72/7/57 80/7/57 73/7/57
f 75/7/58 80/7/58 79/7/58
f 74/7/59 70/7/59 69/7/59
f 71/7/60 77/7/60 76/7/60
f 65/7/61 75/7/61 66/7/61
f 68/7/62 79/7/62 78/7/62
f 72/7/63 64/7/63 63/7/63
f 71/7/64 61/7/64 69/7/64
f 26/7/3 42/7/3 43/7/3
f 28/7/7 31/7/7 40/7/7
f 36/7/8 64/7/8 61/7/8
f 34/7/4 62/7/4 65/7/4
f 28/7/7 44/7/7 47/7/7
f 34/7/4 37/7/4 30/7/4
f 25/7/4 30/7/4 46/7/4
f 44/7/7 54/7/7 59/7/7
f 29/7/1 38/7/1 39/7/1
f 33/7/6 26/7/6 27/7/6
f 32/7/9 48/7/9 45/7/9
f 64/7/10 74/7/10 69/7/10
f 41/7/4 46/7/4 57/7/4
f 48/7/11 58/7/11 55/7/11
f 51/7/2 56/7/2 60/7/2
f 77/7/5 70/7/5 73/7/5
f 42/7/12 49/7/12 52/7/12
f 38/7/13 66/7/13 67/7/13
f 35/7/7 40/7/7 68/7/7
f 62/7/4 71/7/4 76/7/4
f 66/7/14 75/7/14 79/7/14
f 63/7/7 68/7/7 78/7/7
f 35/7/37 36/7/37 27/7/37
f 37/7/38 38/7/38 29/7/38
f 31/7/39 32/7/39 39/7/39
f 25/7/40 26/7/40 33/7/40
f 45/7/67 46/7/67 30/7/67
f 26/7/68 25/7/68 41/7/68
f 31/7/69 47/7/69 48/7/69
f 44/7/70 28/7/70 27/7/70
f 53/7/45 52/7/45 49/7/45
f 58/7/46 60/7/46 56/7/46
f 50/7/47 57/7/47 56/7/47
f 54/7/48 53/7/48 60/7/48
f 55/7/71 57/7/71 46/7/71
f 42/7/72 41/7/72 50/7/72
f 54/7/73 44/7/73 43/7/73
f 58/7/74 48/7/74 47/7/74
f 63/7/75 64/7/75 36/7/75
f 62/7/76 34/7/76 33/7/76
f 37/7/77 65/7/77 66/7/77
f 40/7/78 39/7/78 67/7/78
f 72/7/57 78/7/57 80/7/57
f 75/7/58 77/7/58 80/7/58
f 74/7/59 73/7/59 70/7/59
f 71/7/60 70/7/60 77/7/60
f 65/7/79 76/7/79 75/7/79
f 68/7/80 67/7/80 79/7/80
f 72/7/81 74/7/81 64/7/81
f 71/7/82 62/7/82 61/7/82
