# Blender 4.0.2
# www.blender.org
mtllib Bow.mtl
o String
v -0.496751 -0.003124 -0.249937
v -0.496751 -0.000000 -0.246814
v -0.499874 -0.000000 -0.249937
v -0.496751 0.000000 -0.246814
v -0.496751 0.003124 -0.249937
v -0.499874 0.000000 -0.249937
v -0.496751 -0.003124 -0.249937
v -0.499874 -0.000000 -0.249937
v -0.496751 -0.000000 -0.253061
v -0.496751 0.003124 -0.249937
v -0.496751 0.000000 -0.253061
v -0.499874 0.000000 -0.249937
v 0.496751 -0.003124 -0.249937
v 0.499874 -0.000000 -0.249937
v 0.496751 -0.000000 -0.246814
v 0.496751 0.003124 -0.249937
v 0.496751 0.000000 -0.246814
v 0.499874 0.000000 -0.249937
v 0.496751 -0.003124 -0.249937
v 0.496751 -0.000000 -0.253061
v 0.499874 -0.000000 -0.249937
v 0.496751 0.003124 -0.249937
v 0.499874 0.000000 -0.249937
v 0.496751 0.000000 -0.253061
v 0.124969 0.017642 -0.014015
v 0.124969 0.014519 -0.017642
v 0.124969 -0.014519 -0.017642
v 0.124969 -0.017642 -0.014015
v 0.124969 0.014519 0.017642
v 0.124969 0.017642 0.014015
v 0.124969 -0.017642 0.014015
v 0.124969 -0.014519 0.017642
v -0.124969 0.014519 -0.017642
v -0.124969 0.017642 -0.014015
v -0.124969 -0.017642 -0.014015
v -0.124969 -0.014519 -0.017642
v -0.124969 0.017642 0.014015
v -0.124969 0.014519 0.017642
v -0.124969 -0.014519 0.017642
v -0.124969 -0.017642 0.014015
v 0.374906 0.017642 -0.138953
v 0.374906 0.014519 -0.142611
v 0.374906 -0.014519 -0.142611
v 0.374906 -0.017642 -0.138953
v 0.374906 0.014519 -0.107326
v 0.374906 0.017642 -0.110984
v 0.374906 -0.017642 -0.110984
v 0.374906 -0.014519 -0.107326
v 0.497666 0.014519 -0.265371
v 0.496751 0.017642 -0.260769
v 0.499874 0.014519 -0.264456
v 0.497666 -0.014519 -0.265371
v 0.499874 -0.014519 -0.264456
v 0.496751 -0.017642 -0.260769
v 0.497666 0.014519 -0.230086
v 0.499874 0.014519 -0.235419
v 0.496751 0.017642 -0.232859
v 0.497666 -0.014519 -0.230086
v 0.496751 -0.017642 -0.232859
v 0.499874 -0.014519 -0.235419
v -0.374906 0.014519 -0.142611
v -0.374906 0.017642 -0.138953
v -0.374906 -0.017642 -0.138953
v -0.374906 -0.014519 -0.142611
v -0.374906 0.017642 -0.110984
v -0.374906 0.014519 -0.107326
v -0.374906 -0.014519 -0.107326
v -0.374906 -0.017642 -0.110984
v -0.497666 0.014519 -0.265371
v -0.499874 0.014519 -0.264456
v -0.496751 0.017642 -0.260769
v -0.496751 -0.017642 -0.260769
v -0.499874 -0.014519 -0.264456
v -0.497666 -0.014519 -0.265371
v -0.497666 0.014519 -0.230086
v -0.496751 0.017642 -0.232859
v -0.499874 0.014519 -0.235419
v -0.496751 -0.017642 -0.232859
v -0.497666 -0.014519 -0.230086
v -0.499874 -0.014519 -0.235419
vn -0.0000 -0.0000 1.0000
vn 1.0000 -0.0000 -0.0000
vn -0.4472 -0.0000 -0.8944
vn -0.0000 1.0000 -0.0000
vn -1.0000 -0.0000 -0.0000
vn -0.0000 -0.0000 -1.0000
vn -0.0000 -1.0000 -0.0000
vn 0.4472 -0.0000 -0.8944
vn 0.4472 -0.0000 0.8944
vn 0.7071 -0.0000 -0.7071
vn 0.7071 -0.0000 0.7071
vn -0.7071 -0.0000 -0.7071
vn -0.4472 -0.0000 0.8944
vn -0.7071 -0.0000 0.7071
vn -0.5773 -0.5773 0.5774
vn -0.5773 0.5773 0.5774
vn -0.5773 -0.5773 -0.5774
vn -0.5773 0.5773 -0.5774
vn 0.5773 -0.5773 0.5774
vn 0.5773 0.5773 0.5774
vn 0.5773 -0.5773 -0.5774
vn 0.5773 0.5773 -0.5774
vn 0.2149 0.8274 -0.5189
vn 0.2149 -0.8274 -0.5189
vn 0.7886 0.5209 0.3267
vn 0.7886 -0.5209 0.3267
vn -0.2149 0.8274 -0.5189
vn -0.2149 -0.8274 -0.5189
vn -0.7886 0.5209 0.3267
vn -0.7886 -0.5209 0.3267
vn -0.3713 0.9285 -0.0000
vn -0.0000 -0.7071 -0.7071
vn -0.0000 0.7071 -0.7071
vn 0.3713 -0.9285 -0.0000
vn -0.0000 -0.7071 0.7071
vn -0.0000 0.7071 0.7071
vn -0.0000 -0.7578 -0.6525
vn -0.0000 0.7578 0.6525
vn -0.0000 -0.7578 0.6525
vn -0.0000 0.7578 -0.6525
vn 0.3102 0.7204 0.6203
vn -0.3088 0.7233 -0.6176
vn 0.3102 -0.7204 0.6203
vn -0.3088 -0.7233 -0.6176
vn 0.3827 -0.0000 -0.9239
vn 0.9239 -0.0000 0.3827
vn 0.7071 0.7071 -0.0000
vn 0.7071 -0.7071 -0.0000
vn 0.5446 0.6378 0.5446
vn -0.5428 0.6408 -0.5428
vn -0.5428 -0.6408 -0.5428
vn 0.5429 -0.6408 0.5428
vn 0.3101 -0.7204 -0.6203
vn 0.3088 0.7233 -0.6176
vn -0.3102 0.7204 0.6203
vn -0.3089 -0.7233 0.6176
vn -0.7071 -0.7071 -0.0000
vn -0.9239 -0.0000 0.3827
vn -0.3827 -0.0000 -0.9239
vn -0.7071 0.7071 -0.0000
vn -0.5446 0.6378 0.5446
vn -0.5429 -0.6408 0.5428
vn 0.5445 -0.6378 -0.5447
vn 0.5428 0.6408 -0.5428
vn -0.3713 -0.9285 -0.0000
vn 0.3713 0.9285 -0.0000
vn 0.3089 0.7233 0.6176
vn -0.3101 0.7204 -0.6203
vn 0.3089 -0.7233 0.6176
vn -0.3101 -0.7204 -0.6203
vn 0.5429 0.6408 0.5428
vn -0.5445 0.6378 -0.5447
vn -0.5445 -0.6378 -0.5447
vn 0.5446 -0.6378 0.5446
vn 0.3088 -0.7233 -0.6176
vn 0.3101 0.7204 -0.6203
vn -0.3089 0.7233 0.6176
vn -0.3102 -0.7204 0.6203
vn -0.5429 0.6408 0.5428
vn -0.5446 -0.6378 0.5446
vn 0.5428 -0.6408 -0.5428
vn 0.5445 0.6378 -0.5447
vt 0.500000 0.750781
vt 0.500000 0.999219
vt 0.500000 0.750781
vt 0.283954 0.002974
vt 0.283954 0.002974
vt 0.283954 0.002974
vt 0.000000 0.000000
vt 0.874219 0.625000
vt 0.625781 0.625000
vt 0.625781 0.625000
vt 0.500000 0.125000
vt 0.500000 0.125000
vt 0.500000 0.125000
vt 0.500000 0.250781
vt 0.500000 0.499219
vt 0.500000 0.250781
vt 0.206092 0.408850
vt 0.125093 0.148764
vt 0.230592 0.398371
vt 0.236701 0.397465
vt 0.159010 0.151895
vt 0.263542 0.399177
vt 0.248271 0.638512
vt 0.221430 0.636799
vt 0.221430 0.636799
vt 0.120021 0.856325
vt 0.094968 0.856438
vt 0.278344 0.654425
vt 0.125614 0.858075
vt 0.254328 0.640257
vt 0.099933 0.162612
vt 0.028114 0.004360
vt 0.125093 0.148764
vt 0.094968 0.856438
vt 0.029237 0.959144
vt 0.005483 0.964777
vt 0.147142 0.874482
vt 0.033000 0.961584
vt 0.003820 0.970385
vt 0.039895 0.986376
vt 0.013947 0.996157
vt 0.131409 0.147808
vt 0.060909 0.009437
vt 0.375000 0.999219
vt 0.500000 1.000000
vt 0.500000 0.999219
vt 0.625000 0.999219
vt 0.500000 1.000000
vt 0.320483 0.625000
vt 0.320312 0.625000
vt 0.322430 0.500000
vt 0.874219 0.500000
vt 0.875000 0.625000
vt 0.283954 0.005894
vt 0.286875 0.002974
vt 0.283954 0.000054
vt 0.286875 0.002974
vt 0.283954 0.002974
vt 0.281034 0.002974
vt 0.283954 0.000054
vt 0.281034 0.002974
vt 0.001673 0.966336
vt 0.002710 0.967675
vt 0.028603 0.964199
vt 0.044469 0.983450
vt 0.044971 0.986602
vt 0.042666 0.985386
vt 0.030680 0.002655
vt 0.031847 0.000619
vt 0.034848 0.004398
vt 0.063640 0.009018
vt 0.058944 0.005872
vt 0.320483 0.625000
vt 0.875000 0.625000
vt 0.874219 0.625000
vt 0.500000 0.125000
vt 0.374835 0.500000
vt 0.374829 0.625000
vt 0.375000 0.750781
vt 0.625000 0.750781
vt 0.263542 0.399177
vt 0.251744 0.638733
vt 0.233228 0.397243
vt 0.248271 0.638512
vt 0.217957 0.636578
vt 0.091691 0.856452
vt 0.280164 0.657228
vt 0.147142 0.874482
vt 0.001134 0.971113
vt 0.018362 0.997591
vt 0.043385 0.987939
vt 0.147913 0.877878
vt 0.131409 0.147808
vt 0.127800 0.147274
vt 0.162619 0.152429
vt 0.267015 0.399399
vt 0.004336 0.020306
vt 0.026376 0.001771
vt 0.500000 0.499219
vt 0.099933 0.162612
vt 0.320312 0.625000
vt 0.625781 0.500000
vt 0.149458 0.876246
vt 0.011176 0.997146
vt 0.002610 0.017737
vt 0.374829 0.625000
s 0
usemtl BodyMaterial
f 17/1/1 2/2/1 15/3/1
f 23/4/2 14/5/2 21/6/2
f 26/7/3 43/7/3 27/7/3
f 10/8/4 16/9/4 22/10/4
f 6/11/5 8/12/5 3/13/5
f 11/14/6 20/15/6 9/16/6
f 28/7/7 40/7/7 35/7/7
f 36/17/8 61/18/8 33/19/8
f 34/20/4 65/21/4 37/22/4
f 28/7/7 47/7/7 31/7/7
f 34/20/4 30/23/4 25/24/4
f 25/25/4 46/26/4 41/27/4
f 44/7/7 59/7/7 47/7/7
f 29/7/1 39/7/1 32/7/1
f 33/7/6 27/7/6 36/7/6
f 32/28/9 45/29/9 29/30/9
f 64/31/10 69/32/10 61/33/10
f 41/34/4 57/35/4 50/36/4
f 48/37/11 55/38/11 45/29/11
f 51/39/2 60/40/2 53/41/2
f 77/7/5 73/7/5 80/7/5
f 42/7/12 52/7/12 43/7/12
f 38/7/13 67/7/13 39/7/13
f 35/7/7 68/7/7 63/7/7
f 62/42/4 76/43/4 65/21/4
f 66/7/14 79/7/14 67/7/14
f 63/7/7 78/7/7 72/7/7
f 1/44/15 2/2/15 3/45/15
f 4/46/16 5/47/16 6/48/16
f 7/49/17 8/50/17 9/51/17
f 10/8/18 11/52/18 12/53/18
f 13/54/19 14/5/19 15/55/19
f 16/56/20 17/57/20 18/58/20
f 19/54/21 20/59/21 21/6/21
f 22/60/22 23/4/22 24/61/22
f 49/62/23 50/36/23 51/63/23
f 52/7/24 53/7/24 54/7/24
f 55/38/25 56/64/25 57/35/25
f 58/65/26 59/66/26 60/67/26
f 69/68/27 70/69/27 71/70/27
f 72/7/28 73/7/28 74/7/28
f 75/71/29 76/43/29 77/72/29
f 78/7/30 79/7/30 80/7/30
f 1/73/5 8/50/5 7/49/5
f 4/46/14 3/45/14 2/2/14
f 10/8/31 6/74/31 5/75/31
f 9/16/12 12/76/12 11/14/12
f 7/49/32 20/77/32 19/78/32
f 22/10/33 11/52/33 10/8/33
f 21/6/10 24/61/10 23/4/10
f 19/54/34 14/5/34 13/54/34
f 16/56/2 23/4/2 22/60/2
f 15/55/11 18/58/11 17/57/11
f 13/79/35 2/2/35 1/44/35
f 5/47/36 17/1/36 16/80/36
f 35/7/37 27/7/37 28/7/37
f 37/81/38 29/82/38 30/23/38
f 31/7/39 39/7/39 40/7/39
f 25/24/40 33/83/40 34/20/40
f 45/29/41 30/84/41 29/30/41
f 26/85/42 41/27/42 42/86/42
f 31/87/43 48/88/43 32/28/43
f 44/7/44 27/7/44 43/7/44
f 53/41/45 49/89/45 51/39/45
f 58/65/46 56/64/46 55/38/46
f 50/36/47 56/64/47 51/39/47
f 54/90/48 60/40/48 59/91/48
f 55/38/49 46/26/49 45/29/49
f 42/86/50 50/36/50 49/62/50
f 54/7/51 43/7/51 52/7/51
f 58/65/52 47/92/52 59/66/52
f 63/7/53 36/7/53 35/7/53
f 62/93/54 33/83/54 61/94/54
f 37/22/55 66/95/55 38/96/55
f 40/7/56 67/7/56 68/7/56
f 72/7/57 80/7/57 73/7/57
f 75/7/58 80/7/58 79/7/58
f 74/97/59 70/98/59 69/32/59
f 71/70/60 77/72/60 76/43/60
f 65/21/61 75/71/61 66/95/61
f 68/7/62 79/7/62 78/7/62
f 72/7/63 64/7/63 63/7/63
f 71/70/64 61/94/64 69/68/64
f 19/78/4 1/73/4 7/49/4
f 17/1/1 4/46/1 2/2/1
f 23/4/2 18/58/2 14/5/2
f 26/7/3 42/7/3 43/7/3
f 10/8/4 5/75/4 16/9/4
f 6/11/5 12/76/5 8/12/5
f 11/14/6 24/99/6 20/15/6
f 28/7/7 31/7/7 40/7/7
f 36/17/8 64/100/8 61/18/8
f 34/20/4 62/93/4 65/21/4
f 28/7/7 44/7/7 47/7/7
f 34/20/4 37/81/4 30/23/4
f 25/25/4 30/84/4 46/26/4
f 44/7/7 54/7/7 59/7/7
f 29/7/1 38/7/1 39/7/1
f 33/7/6 26/7/6 27/7/6
f 32/28/9 48/88/9 45/29/9
f 64/31/10 74/97/10 69/32/10
f 41/34/4 46/26/4 57/35/4
f 48/37/11 58/65/11 55/38/11
f 51/39/2 56/64/2 60/40/2
f 77/7/5 70/7/5 73/7/5
f 42/7/12 49/7/12 52/7/12
f 38/7/13 66/7/13 67/7/13
f 35/7/7 40/7/7 68/7/7
f 62/42/4 71/70/4 76/43/4
f 66/7/14 75/7/14 79/7/14
f 63/7/7 68/7/7 78/7/7
f 1/73/65 3/101/65 8/50/65
f 4/46/14 6/48/14 3/45/14
f 10/8/5 12/53/5 6/74/5
f 9/16/12 8/12/12 12/76/12
f 7/49/32 9/51/32 20/77/32
f 22/10/33 24/102/33 11/52/33
f 21/6/10 20/59/10 24/61/10
f 19/54/2 21/6/2 14/5/2
f 16/56/66 18/58/66 23/4/66
f 15/55/11 14/5/11 18/58/11
f 13/79/35 15/3/35 2/2/35
f 5/47/36 4/46/36 17/1/36
f 35/7/37 36/7/37 27/7/37
f 37/81/38 38/96/38 29/82/38
f 31/7/39 32/7/39 39/7/39
f 25/24/40 26/85/40 33/83/40
f 45/29/67 46/26/67 30/84/67
f 26/85/68 25/25/68 41/27/68
f 31/87/69 47/103/69 48/88/69
f 44/7/70 28/7/70 27/7/70
f 53/41/45 52/104/45 49/89/45
f 58/65/46 60/40/46 56/64/46
f 50/36/47 57/35/47 56/64/47
f 54/90/48 53/41/48 60/40/48
f 55/38/71 57/35/71 46/26/71
f 42/86/72 41/34/72 50/36/72
f 54/7/73 44/7/73 43/7/73
f 58/65/74 48/37/74 47/92/74
f 63/7/75 64/7/75 36/7/75
f 62/93/76 34/20/76 33/83/76
f 37/22/77 65/21/77 66/95/77
f 40/7/78 39/7/78 67/7/78
f 72/7/57 78/7/57 80/7/57
f 75/7/58 77/7/58 80/7/58
f 74/97/59 73/105/59 70/98/59
f 71/70/60 70/69/60 77/72/60
f 65/21/79 76/43/79 75/71/79
f 68/7/80 67/7/80 79/7/80
f 72/7/81 74/7/81 64/7/81
f 71/70/82 62/42/82 61/94/82
f 19/78/7 13/106/7 1/73/7
