{
	"asset":{
		"generator":"Khronos glTF Blender I/O v4.0.44",
		"version":"2.0"
	},
	"scene":0,
	"scenes":[
		{
			"name":"Scene",
			"nodes":[
				11
			]
		}
	],
	"nodes":[
		{
			"name":"Blade7",
			"translation":[
				0,
				4.931041717529297,
				0
			]
		},
		{
			"children":[
				0
			],
			"name":"Blade6",
			"translation":[
				0,
				5.344444274902344,
				0
			]
		},
		{
			"children":[
				1
			],
			"name":"Blade5",
			"scale":[
				1,
				0.9999999403953552,
				1
			],
			"translation":[
				0,
				6,
				0
			]
		},
		{
			"children":[
				2
			],
			"name":"Blade4",
			"translation":[
				0,
				6,
				0
			]
		},
		{
			"children":[
				3
			],
			"name":"Blade3",
			"translation":[
				0,
				6,
				0
			]
		},
		{
			"children":[
				4
			],
			"name":"Blade2",
			"translation":[
				0,
				6,
				0
			]
		},
		{
			"children":[
				5
			],
			"name":"Blade1",
			"translation":[
				0,
				6,
				0
			]
		},
		{
			"children":[
				6
			],
			"name":"Blade0",
			"translation":[
				0,
				6,
				0
			]
		},
		{
			"children":[
				7
			],
			"name":"Hilt",
			"translation":[
				0,
				6,
				0
			]
		},
		{
			"children":[
				8
			],
			"name":"\u30dc\u30fc\u30f3",
			"rotation":[
				-0.7071067690849304,
				0,
				0,
				0.7071067690849304
			]
		},
		{
			"children":[
				9
			],
			"name":"\u30a2\u30fc\u30de\u30c1\u30e5\u30a2"
		},
		{
			"children":[
				10
			],
			"mesh":0,
			"name":"sword"
		}
	],
	"animations":[
		{
			"channels":[
				{
					"sampler":0,
					"target":{
						"node":9,
						"path":"translation"
					}
				},
				{
					"sampler":1,
					"target":{
						"node":9,
						"path":"rotation"
					}
				},
				{
					"sampler":2,
					"target":{
						"node":9,
						"path":"scale"
					}
				},
				{
					"sampler":3,
					"target":{
						"node":8,
						"path":"translation"
					}
				},
				{
					"sampler":4,
					"target":{
						"node":8,
						"path":"rotation"
					}
				},
				{
					"sampler":5,
					"target":{
						"node":8,
						"path":"scale"
					}
				},
				{
					"sampler":6,
					"target":{
						"node":7,
						"path":"translation"
					}
				},
				{
					"sampler":7,
					"target":{
						"node":7,
						"path":"rotation"
					}
				},
				{
					"sampler":8,
					"target":{
						"node":7,
						"path":"scale"
					}
				},
				{
					"sampler":9,
					"target":{
						"node":6,
						"path":"translation"
					}
				},
				{
					"sampler":10,
					"target":{
						"node":6,
						"path":"rotation"
					}
				},
				{
					"sampler":11,
					"target":{
						"node":6,
						"path":"scale"
					}
				},
				{
					"sampler":12,
					"target":{
						"node":5,
						"path":"translation"
					}
				},
				{
					"sampler":13,
					"target":{
						"node":5,
						"path":"rotation"
					}
				},
				{
					"sampler":14,
					"target":{
						"node":5,
						"path":"scale"
					}
				},
				{
					"sampler":15,
					"target":{
						"node":4,
						"path":"translation"
					}
				},
				{
					"sampler":16,
					"target":{
						"node":4,
						"path":"rotation"
					}
				},
				{
					"sampler":17,
					"target":{
						"node":4,
						"path":"scale"
					}
				},
				{
					"sampler":18,
					"target":{
						"node":3,
						"path":"translation"
					}
				},
				{
					"sampler":19,
					"target":{
						"node":3,
						"path":"rotation"
					}
				},
				{
					"sampler":20,
					"target":{
						"node":3,
						"path":"scale"
					}
				},
				{
					"sampler":21,
					"target":{
						"node":2,
						"path":"translation"
					}
				},
				{
					"sampler":22,
					"target":{
						"node":2,
						"path":"rotation"
					}
				},
				{
					"sampler":23,
					"target":{
						"node":2,
						"path":"scale"
					}
				},
				{
					"sampler":24,
					"target":{
						"node":1,
						"path":"translation"
					}
				},
				{
					"sampler":25,
					"target":{
						"node":1,
						"path":"rotation"
					}
				},
				{
					"sampler":26,
					"target":{
						"node":1,
						"path":"scale"
					}
				},
				{
					"sampler":27,
					"target":{
						"node":0,
						"path":"translation"
					}
				},
				{
					"sampler":28,
					"target":{
						"node":0,
						"path":"rotation"
					}
				},
				{
					"sampler":29,
					"target":{
						"node":0,
						"path":"scale"
					}
				}
			],
			"name":"\u30a2\u30fc\u30de\u30c1\u30e5\u30a2Action",
			"samplers":[
				{
					"input":4,
					"interpolation":"LINEAR",
					"output":5
				},
				{
					"input":4,
					"interpolation":"LINEAR",
					"output":6
				},
				{
					"input":4,
					"interpolation":"LINEAR",
					"output":7
				},
				{
					"input":4,
					"interpolation":"LINEAR",
					"output":8
				},
				{
					"input":4,
					"interpolation":"LINEAR",
					"output":9
				},
				{
					"input":4,
					"interpolation":"LINEAR",
					"output":10
				},
				{
					"input":4,
					"interpolation":"LINEAR",
					"output":11
				},
				{
					"input":4,
					"interpolation":"LINEAR",
					"output":12
				},
				{
					"input":4,
					"interpolation":"LINEAR",
					"output":13
				},
				{
					"input":4,
					"interpolation":"LINEAR",
					"output":14
				},
				{
					"input":4,
					"interpolation":"LINEAR",
					"output":15
				},
				{
					"input":4,
					"interpolation":"LINEAR",
					"output":16
				},
				{
					"input":4,
					"interpolation":"LINEAR",
					"output":17
				},
				{
					"input":4,
					"interpolation":"LINEAR",
					"output":18
				},
				{
					"input":4,
					"interpolation":"LINEAR",
					"output":19
				},
				{
					"input":4,
					"interpolation":"LINEAR",
					"output":20
				},
				{
					"input":4,
					"interpolation":"LINEAR",
					"output":21
				},
				{
					"input":4,
					"interpolation":"LINEAR",
					"output":22
				},
				{
					"input":4,
					"interpolation":"LINEAR",
					"output":23
				},
				{
					"input":4,
					"interpolation":"LINEAR",
					"output":24
				},
				{
					"input":4,
					"interpolation":"LINEAR",
					"output":25
				},
				{
					"input":4,
					"interpolation":"LINEAR",
					"output":26
				},
				{
					"input":4,
					"interpolation":"LINEAR",
					"output":27
				},
				{
					"input":4,
					"interpolation":"LINEAR",
					"output":28
				},
				{
					"input":4,
					"interpolation":"LINEAR",
					"output":29
				},
				{
					"input":4,
					"interpolation":"LINEAR",
					"output":30
				},
				{
					"input":4,
					"interpolation":"LINEAR",
					"output":31
				},
				{
					"input":4,
					"interpolation":"LINEAR",
					"output":32
				},
				{
					"input":4,
					"interpolation":"LINEAR",
					"output":33
				},
				{
					"input":4,
					"interpolation":"LINEAR",
					"output":34
				}
			]
		}
	],
	"materials":[
		{
			"doubleSided":true,
			"name":"\u30de\u30c6\u30ea\u30a2\u30eb",
			"pbrMetallicRoughness":{
				"baseColorTexture":{
					"index":0
				},
				"roughnessFactor":0.5253164768218994
			}
		}
	],
	"meshes":[
		{
			"name":"sword",
			"primitives":[
				{
					"attributes":{
						"POSITION":0,
						"NORMAL":1,
						"TEXCOORD_0":2
					},
					"indices":3,
					"material":0
				}
			]
		}
	],
	"textures":[
		{
			"sampler":0,
			"source":0
		}
	],
	"images":[
		{
			"mimeType":"image/png",
			"name":"twHanded",
			"uri":"twHanded.png"
		}
	],
	"skins":[
		{
			"inverseBindMatrices":35,
			"joints":[
				9,
				8,
				7,
				6,
				5,
				4,
				3,
				2,
				1,
				0
			],
			"name":"\u30a2\u30fc\u30de\u30c1\u30e5\u30a2"
		}
	],
	"accessors":[
		{
			"bufferView":0,
			"componentType":5126,
			"count":327,
			"max":[
				4.050000190734863,
				0.6062178015708923,
				10.53327751159668
			],
			"min":[
				-4.0500006675720215,
				-0.6062178611755371,
				-62.81928253173828
			],
			"type":"VEC3"
		},
		{
			"bufferView":1,
			"componentType":5126,
			"count":327,
			"type":"VEC3"
		},
		{
			"bufferView":2,
			"componentType":5126,
			"count":327,
			"type":"VEC2"
		},
		{
			"bufferView":3,
			"componentType":5123,
			"count":420,
			"type":"SCALAR"
		},
		{
			"bufferView":4,
			"componentType":5126,
			"count":1,
			"max":[
				0.041666666666666664
			],
			"min":[
				0.041666666666666664
			],
			"type":"SCALAR"
		},
		{
			"bufferView":5,
			"componentType":5126,
			"count":1,
			"type":"VEC3"
		},
		{
			"bufferView":6,
			"componentType":5126,
			"count":1,
			"type":"VEC4"
		},
		{
			"bufferView":7,
			"componentType":5126,
			"count":1,
			"type":"VEC3"
		},
		{
			"bufferView":8,
			"componentType":5126,
			"count":1,
			"type":"VEC3"
		},
		{
			"bufferView":9,
			"componentType":5126,
			"count":1,
			"type":"VEC4"
		},
		{
			"bufferView":10,
			"componentType":5126,
			"count":1,
			"type":"VEC3"
		},
		{
			"bufferView":11,
			"componentType":5126,
			"count":1,
			"type":"VEC3"
		},
		{
			"bufferView":12,
			"componentType":5126,
			"count":1,
			"type":"VEC4"
		},
		{
			"bufferView":13,
			"componentType":5126,
			"count":1,
			"type":"VEC3"
		},
		{
			"bufferView":14,
			"componentType":5126,
			"count":1,
			"type":"VEC3"
		},
		{
			"bufferView":15,
			"componentType":5126,
			"count":1,
			"type":"VEC4"
		},
		{
			"bufferView":16,
			"componentType":5126,
			"count":1,
			"type":"VEC3"
		},
		{
			"bufferView":17,
			"componentType":5126,
			"count":1,
			"type":"VEC3"
		},
		{
			"bufferView":18,
			"componentType":5126,
			"count":1,
			"type":"VEC4"
		},
		{
			"bufferView":19,
			"componentType":5126,
			"count":1,
			"type":"VEC3"
		},
		{
			"bufferView":20,
			"componentType":5126,
			"count":1,
			"type":"VEC3"
		},
		{
			"bufferView":21,
			"componentType":5126,
			"count":1,
			"type":"VEC4"
		},
		{
			"bufferView":22,
			"componentType":5126,
			"count":1,
			"type":"VEC3"
		},
		{
			"bufferView":23,
			"componentType":5126,
			"count":1,
			"type":"VEC3"
		},
		{
			"bufferView":24,
			"componentType":5126,
			"count":1,
			"type":"VEC4"
		},
		{
			"bufferView":25,
			"componentType":5126,
			"count":1,
			"type":"VEC3"
		},
		{
			"bufferView":26,
			"componentType":5126,
			"count":1,
			"type":"VEC3"
		},
		{
			"bufferView":27,
			"componentType":5126,
			"count":1,
			"type":"VEC4"
		},
		{
			"bufferView":28,
			"componentType":5126,
			"count":1,
			"type":"VEC3"
		},
		{
			"bufferView":29,
			"componentType":5126,
			"count":1,
			"type":"VEC3"
		},
		{
			"bufferView":30,
			"componentType":5126,
			"count":1,
			"type":"VEC4"
		},
		{
			"bufferView":31,
			"componentType":5126,
			"count":1,
			"type":"VEC3"
		},
		{
			"bufferView":32,
			"componentType":5126,
			"count":1,
			"type":"VEC3"
		},
		{
			"bufferView":33,
			"componentType":5126,
			"count":1,
			"type":"VEC4"
		},
		{
			"bufferView":34,
			"componentType":5126,
			"count":1,
			"type":"VEC3"
		},
		{
			"bufferView":35,
			"componentType":5126,
			"count":10,
			"type":"MAT4"
		}
	],
	"bufferViews":[
		{
			"buffer":0,
			"byteLength":3924,
			"byteOffset":0,
			"target":34962
		},
		{
			"buffer":0,
			"byteLength":3924,
			"byteOffset":3924,
			"target":34962
		},
		{
			"buffer":0,
			"byteLength":2616,
			"byteOffset":7848,
			"target":34962
		},
		{
			"buffer":0,
			"byteLength":840,
			"byteOffset":10464,
			"target":34963
		},
		{
			"buffer":0,
			"byteLength":4,
			"byteOffset":11304
		},
		{
			"buffer":0,
			"byteLength":12,
			"byteOffset":11308
		},
		{
			"buffer":0,
			"byteLength":16,
			"byteOffset":11320
		},
		{
			"buffer":0,
			"byteLength":12,
			"byteOffset":11336
		},
		{
			"buffer":0,
			"byteLength":12,
			"byteOffset":11348
		},
		{
			"buffer":0,
			"byteLength":16,
			"byteOffset":11360
		},
		{
			"buffer":0,
			"byteLength":12,
			"byteOffset":11376
		},
		{
			"buffer":0,
			"byteLength":12,
			"byteOffset":11388
		},
		{
			"buffer":0,
			"byteLength":16,
			"byteOffset":11400
		},
		{
			"buffer":0,
			"byteLength":12,
			"byteOffset":11416
		},
		{
			"buffer":0,
			"byteLength":12,
			"byteOffset":11428
		},
		{
			"buffer":0,
			"byteLength":16,
			"byteOffset":11440
		},
		{
			"buffer":0,
			"byteLength":12,
			"byteOffset":11456
		},
		{
			"buffer":0,
			"byteLength":12,
			"byteOffset":11468
		},
		{
			"buffer":0,
			"byteLength":16,
			"byteOffset":11480
		},
		{
			"buffer":0,
			"byteLength":12,
			"byteOffset":11496
		},
		{
			"buffer":0,
			"byteLength":12,
			"byteOffset":11508
		},
		{
			"buffer":0,
			"byteLength":16,
			"byteOffset":11520
		},
		{
			"buffer":0,
			"byteLength":12,
			"byteOffset":11536
		},
		{
			"buffer":0,
			"byteLength":12,
			"byteOffset":11548
		},
		{
			"buffer":0,
			"byteLength":16,
			"byteOffset":11560
		},
		{
			"buffer":0,
			"byteLength":12,
			"byteOffset":11576
		},
		{
			"buffer":0,
			"byteLength":12,
			"byteOffset":11588
		},
		{
			"buffer":0,
			"byteLength":16,
			"byteOffset":11600
		},
		{
			"buffer":0,
			"byteLength":12,
			"byteOffset":11616
		},
		{
			"buffer":0,
			"byteLength":12,
			"byteOffset":11628
		},
		{
			"buffer":0,
			"byteLength":16,
			"byteOffset":11640
		},
		{
			"buffer":0,
			"byteLength":12,
			"byteOffset":11656
		},
		{
			"buffer":0,
			"byteLength":12,
			"byteOffset":11668
		},
		{
			"buffer":0,
			"byteLength":16,
			"byteOffset":11680
		},
		{
			"buffer":0,
			"byteLength":12,
			"byteOffset":11696
		},
		{
			"buffer":0,
			"byteLength":640,
			"byteOffset":11708
		}
	],
	"samplers":[
		{
			"magFilter":9729,
			"minFilter":9987
		}
	],
	"buffers":[
		{
			"byteLength":12348,
			"uri":"twoHanded.bin"
		}
	]
}
