{
	"asset":{
		"generator":"Khronos glTF Blender I/O v4.0.44",
		"version":"2.0"
	},
	"scene":0,
	"scenes":[
		{
			"name":"Scene",
			"nodes":[
				0
			]
		}
	],
	"nodes":[
		{
			"mesh":0,
			"name":"Cube"
		}
	],
	"materials":[
		{
			"doubleSided":true,
			"name":"Material",
			"pbrMetallicRoughness":{
				"baseColorTexture":{
					"index":0
				},
				"metallicFactor":0,
				"roughnessFactor":0.5
			}
		}
	],
	"meshes":[
		{
			"name":"Cube",
			"primitives":[
				{
					"attributes":{
						"POSITION":0,
						"NORMAL":1,
						"TEXCOORD_0":2
					},
					"indices":3,
					"material":0
				}
			]
		}
	],
	"textures":[
		{
			"sampler":0,
			"source":0
		}
	],
	"images":[
		{
			"mimeType":"image/png",
			"name":"Wood",
			"uri":"Wood.png"
		}
	],
	"accessors":[
		{
			"bufferView":0,
			"componentType":5126,
			"count":801,
			"max":[
				2.6044583320617676,
				0.7499978542327881,
				2.578212261199951
			],
			"min":[
				-2.6044633388519287,
				0.01999640464782715,
				-2.5782060623168945
			],
			"type":"VEC3"
		},
		{
			"bufferView":1,
			"componentType":5126,
			"count":801,
			"type":"VEC3"
		},
		{
			"bufferView":2,
			"componentType":5126,
			"count":801,
			"type":"VEC2"
		},
		{
			"bufferView":3,
			"componentType":5123,
			"count":2700,
			"type":"SCALAR"
		}
	],
	"bufferViews":[
		{
			"buffer":0,
			"byteLength":9612,
			"byteOffset":0,
			"target":34962
		},
		{
			"buffer":0,
			"byteLength":9612,
			"byteOffset":9612,
			"target":34962
		},
		{
			"buffer":0,
			"byteLength":6408,
			"byteOffset":19224,
			"target":34962
		},
		{
			"buffer":0,
			"byteLength":5400,
			"byteOffset":25632,
			"target":34963
		}
	],
	"samplers":[
		{
			"magFilter":9729,
			"minFilter":9987
		}
	],
	"buffers":[
		{
			"byteLength":31032,
			"uri":"Wood.bin"
		}
	]
}
