{
	"asset":{
		"generator":"Khronos glTF Blender I/O v4.4.56",
		"version":"2.0"
	},
	"extensionsUsed":[
		"KHR_materials_specular"
	],
	"scene":0,
	"scenes":[
		{
			"name":"Scene",
			"nodes":[
				7
			]
		}
	],
	"nodes":[
		{
			"name":"Blade4",
			"rotation":[
				-0.011478717438876629,
				0.9932304620742798,
				0.006282898131757975,
				0.1154213473200798
			],
			"scale":[
				0.9999999403953552,
				0.9999997615814209,
				0.9999998211860657
			],
			"translation":[
				-1.2153759598731995e-07,
				14.99998950958252,
				-1.123407855629921e-07
			]
		},
		{
			"children":[
				0
			],
			"name":"Blade3",
			"rotation":[
				0.007096656132489443,
				0.02623864635825157,
				-0.015247617848217487,
				0.9995142817497253
			],
			"scale":[
				1,
				0.9999999403953552,
				0.9999999403953552
			],
			"translation":[
				-1.4435499906539917e-08,
				15.000003814697266,
				9.778887033462524e-09
			]
		},
		{
			"children":[
				1
			],
			"name":"Blade2",
			"rotation":[
				0.0061285002157092094,
				0.999845564365387,
				0.002778212772682309,
				0.016237327829003334
			],
			"scale":[
				1,
				1.0000003576278687,
				0.9999999403953552
			],
			"translation":[
				1.3010426069826053e-18,
				15,
				-2.2737367544323206e-13
			]
		},
		{
			"children":[
				2
			],
			"name":"Blade1",
			"rotation":[
				-3.157568065521865e-13,
				1,
				1.283792698814068e-07,
				3.139164164167596e-07
			],
			"translation":[
				-2.168404344971009e-19,
				15,
				0
			]
		},
		{
			"children":[
				3
			],
			"name":"Blade0",
			"rotation":[
				-5.960445648156565e-08,
				-0.0026178332045674324,
				-1.5620037208119442e-10,
				0.999996542930603
			],
			"translation":[
				-2.220446049250313e-16,
				10,
				2.842170943040401e-14
			]
		},
		{
			"children":[
				4
			],
			"name":"Hilt",
			"rotation":[
				0.002619219943881035,
				0,
				-0.999996542930603,
				0
			]
		},
		{
			"children":[
				5
			],
			"name":"\u30a2\u30fc\u30de\u30c1\u30e5\u30a2",
			"rotation":[
				-0.7071068286895752,
				0,
				0,
				0.7071068286895752
			]
		},
		{
			"children":[
				6
			],
			"mesh":0,
			"name":"Actor_Sword"
		}
	],
	"animations":[
		{
			"channels":[
				{
					"sampler":0,
					"target":{
						"node":5,
						"path":"translation"
					}
				},
				{
					"sampler":1,
					"target":{
						"node":5,
						"path":"rotation"
					}
				},
				{
					"sampler":2,
					"target":{
						"node":5,
						"path":"scale"
					}
				},
				{
					"sampler":3,
					"target":{
						"node":4,
						"path":"translation"
					}
				},
				{
					"sampler":4,
					"target":{
						"node":4,
						"path":"rotation"
					}
				},
				{
					"sampler":5,
					"target":{
						"node":4,
						"path":"scale"
					}
				},
				{
					"sampler":6,
					"target":{
						"node":3,
						"path":"translation"
					}
				},
				{
					"sampler":7,
					"target":{
						"node":3,
						"path":"rotation"
					}
				},
				{
					"sampler":8,
					"target":{
						"node":3,
						"path":"scale"
					}
				},
				{
					"sampler":9,
					"target":{
						"node":2,
						"path":"translation"
					}
				},
				{
					"sampler":10,
					"target":{
						"node":2,
						"path":"rotation"
					}
				},
				{
					"sampler":11,
					"target":{
						"node":2,
						"path":"scale"
					}
				},
				{
					"sampler":12,
					"target":{
						"node":1,
						"path":"translation"
					}
				},
				{
					"sampler":13,
					"target":{
						"node":1,
						"path":"rotation"
					}
				},
				{
					"sampler":14,
					"target":{
						"node":1,
						"path":"scale"
					}
				},
				{
					"sampler":15,
					"target":{
						"node":0,
						"path":"translation"
					}
				},
				{
					"sampler":16,
					"target":{
						"node":0,
						"path":"rotation"
					}
				},
				{
					"sampler":17,
					"target":{
						"node":0,
						"path":"scale"
					}
				}
			],
			"name":"Armature|mixamo.com|Layer0",
			"samplers":[
				{
					"input":4,
					"interpolation":"STEP",
					"output":5
				},
				{
					"input":4,
					"interpolation":"STEP",
					"output":6
				},
				{
					"input":4,
					"interpolation":"STEP",
					"output":7
				},
				{
					"input":4,
					"interpolation":"STEP",
					"output":8
				},
				{
					"input":4,
					"interpolation":"STEP",
					"output":9
				},
				{
					"input":4,
					"interpolation":"STEP",
					"output":10
				},
				{
					"input":4,
					"interpolation":"STEP",
					"output":11
				},
				{
					"input":4,
					"interpolation":"STEP",
					"output":12
				},
				{
					"input":4,
					"interpolation":"STEP",
					"output":13
				},
				{
					"input":4,
					"interpolation":"STEP",
					"output":14
				},
				{
					"input":4,
					"interpolation":"STEP",
					"output":15
				},
				{
					"input":4,
					"interpolation":"STEP",
					"output":16
				},
				{
					"input":4,
					"interpolation":"STEP",
					"output":17
				},
				{
					"input":4,
					"interpolation":"STEP",
					"output":18
				},
				{
					"input":4,
					"interpolation":"STEP",
					"output":19
				},
				{
					"input":4,
					"interpolation":"STEP",
					"output":20
				},
				{
					"input":4,
					"interpolation":"STEP",
					"output":21
				},
				{
					"input":4,
					"interpolation":"STEP",
					"output":22
				}
			]
		},
		{
			"channels":[
				{
					"sampler":0,
					"target":{
						"node":5,
						"path":"translation"
					}
				},
				{
					"sampler":1,
					"target":{
						"node":5,
						"path":"rotation"
					}
				},
				{
					"sampler":2,
					"target":{
						"node":5,
						"path":"scale"
					}
				},
				{
					"sampler":3,
					"target":{
						"node":4,
						"path":"translation"
					}
				},
				{
					"sampler":4,
					"target":{
						"node":4,
						"path":"rotation"
					}
				},
				{
					"sampler":5,
					"target":{
						"node":4,
						"path":"scale"
					}
				},
				{
					"sampler":6,
					"target":{
						"node":3,
						"path":"translation"
					}
				},
				{
					"sampler":7,
					"target":{
						"node":3,
						"path":"rotation"
					}
				},
				{
					"sampler":8,
					"target":{
						"node":3,
						"path":"scale"
					}
				},
				{
					"sampler":9,
					"target":{
						"node":2,
						"path":"translation"
					}
				},
				{
					"sampler":10,
					"target":{
						"node":2,
						"path":"rotation"
					}
				},
				{
					"sampler":11,
					"target":{
						"node":2,
						"path":"scale"
					}
				},
				{
					"sampler":12,
					"target":{
						"node":1,
						"path":"translation"
					}
				},
				{
					"sampler":13,
					"target":{
						"node":1,
						"path":"rotation"
					}
				},
				{
					"sampler":14,
					"target":{
						"node":1,
						"path":"scale"
					}
				},
				{
					"sampler":15,
					"target":{
						"node":0,
						"path":"translation"
					}
				},
				{
					"sampler":16,
					"target":{
						"node":0,
						"path":"rotation"
					}
				},
				{
					"sampler":17,
					"target":{
						"node":0,
						"path":"scale"
					}
				},
				{
					"sampler":18,
					"target":{
						"node":6,
						"path":"rotation"
					}
				},
				{
					"sampler":19,
					"target":{
						"node":6,
						"path":"scale"
					}
				},
				{
					"sampler":20,
					"target":{
						"node":6,
						"path":"translation"
					}
				}
			],
			"name":"\u30a2\u30fc\u30de\u30c1\u30e5\u30a2\u30a2\u30af\u30b7\u30e7\u30f3",
			"samplers":[
				{
					"input":23,
					"interpolation":"STEP",
					"output":24
				},
				{
					"input":23,
					"interpolation":"STEP",
					"output":25
				},
				{
					"input":23,
					"interpolation":"STEP",
					"output":26
				},
				{
					"input":23,
					"interpolation":"STEP",
					"output":27
				},
				{
					"input":23,
					"interpolation":"STEP",
					"output":28
				},
				{
					"input":23,
					"interpolation":"STEP",
					"output":29
				},
				{
					"input":23,
					"interpolation":"STEP",
					"output":30
				},
				{
					"input":23,
					"interpolation":"STEP",
					"output":31
				},
				{
					"input":23,
					"interpolation":"STEP",
					"output":32
				},
				{
					"input":23,
					"interpolation":"STEP",
					"output":33
				},
				{
					"input":23,
					"interpolation":"STEP",
					"output":34
				},
				{
					"input":23,
					"interpolation":"STEP",
					"output":35
				},
				{
					"input":23,
					"interpolation":"STEP",
					"output":36
				},
				{
					"input":23,
					"interpolation":"STEP",
					"output":37
				},
				{
					"input":23,
					"interpolation":"STEP",
					"output":38
				},
				{
					"input":23,
					"interpolation":"STEP",
					"output":39
				},
				{
					"input":23,
					"interpolation":"STEP",
					"output":40
				},
				{
					"input":23,
					"interpolation":"STEP",
					"output":41
				},
				{
					"input":23,
					"interpolation":"LINEAR",
					"output":42
				},
				{
					"input":23,
					"interpolation":"LINEAR",
					"output":43
				},
				{
					"input":23,
					"interpolation":"LINEAR",
					"output":44
				}
			]
		}
	],
	"materials":[
		{
			"doubleSided":true,
			"extensions":{
				"KHR_materials_specular":{
					"specularTexture":{
						"index":0
					}
				}
			},
			"name":"Paladin_MAT",
			"normalTexture":{
				"index":1
			},
			"pbrMetallicRoughness":{
				"baseColorTexture":{
					"index":2
				},
				"metallicFactor":0.5,
				"roughnessFactor":0.5527864098548889
			}
		}
	],
	"meshes":[
		{
			"name":"Paladin_J_Nordstrom",
			"primitives":[
				{
					"attributes":{
						"POSITION":0,
						"NORMAL":1,
						"TEXCOORD_0":2
					},
					"indices":3,
					"material":0
				}
			]
		}
	],
	"textures":[
		{
			"sampler":0,
			"source":0
		},
		{
			"sampler":0,
			"source":1
		},
		{
			"sampler":0,
			"source":2
		}
	],
	"images":[
		{
			"mimeType":"image/png",
			"name":"Paladin_specular",
			"uri":"Paladin_specular.png"
		},
		{
			"mimeType":"image/png",
			"name":"Paladin_normal",
			"uri":"Paladin_normal.png"
		},
		{
			"mimeType":"image/png",
			"name":"Paladin_diffuse",
			"uri":"Paladin_diffuse.png"
		}
	],
	"skins":[
		{
			"inverseBindMatrices":45,
			"joints":[
				5,
				4,
				3,
				2,
				1,
				0
			],
			"name":"\u30a2\u30fc\u30de\u30c1\u30e5\u30a2"
		}
	],
	"accessors":[
		{
			"bufferView":0,
			"componentType":5126,
			"count":225,
			"max":[
				12.059111595153809,
				3.0747737884521484,
				82.11640167236328
			],
			"min":[
				-11.962666511535645,
				-3.0869808197021484,
				-22.756193161010742
			],
			"type":"VEC3"
		},
		{
			"bufferView":1,
			"componentType":5126,
			"count":225,
			"type":"VEC3"
		},
		{
			"bufferView":2,
			"componentType":5126,
			"count":225,
			"type":"VEC2"
		},
		{
			"bufferView":3,
			"componentType":5123,
			"count":684,
			"type":"SCALAR"
		},
		{
			"bufferView":4,
			"componentType":5126,
			"count":2,
			"max":[
				0.06666666666666667
			],
			"min":[
				0
			],
			"type":"SCALAR"
		},
		{
			"bufferView":5,
			"componentType":5126,
			"count":2,
			"type":"VEC3"
		},
		{
			"bufferView":6,
			"componentType":5126,
			"count":2,
			"type":"VEC4"
		},
		{
			"bufferView":7,
			"componentType":5126,
			"count":2,
			"type":"VEC3"
		},
		{
			"bufferView":8,
			"componentType":5126,
			"count":2,
			"type":"VEC3"
		},
		{
			"bufferView":9,
			"componentType":5126,
			"count":2,
			"type":"VEC4"
		},
		{
			"bufferView":10,
			"componentType":5126,
			"count":2,
			"type":"VEC3"
		},
		{
			"bufferView":11,
			"componentType":5126,
			"count":2,
			"type":"VEC3"
		},
		{
			"bufferView":12,
			"componentType":5126,
			"count":2,
			"type":"VEC4"
		},
		{
			"bufferView":13,
			"componentType":5126,
			"count":2,
			"type":"VEC3"
		},
		{
			"bufferView":14,
			"componentType":5126,
			"count":2,
			"type":"VEC3"
		},
		{
			"bufferView":15,
			"componentType":5126,
			"count":2,
			"type":"VEC4"
		},
		{
			"bufferView":16,
			"componentType":5126,
			"count":2,
			"type":"VEC3"
		},
		{
			"bufferView":17,
			"componentType":5126,
			"count":2,
			"type":"VEC3"
		},
		{
			"bufferView":18,
			"componentType":5126,
			"count":2,
			"type":"VEC4"
		},
		{
			"bufferView":19,
			"componentType":5126,
			"count":2,
			"type":"VEC3"
		},
		{
			"bufferView":20,
			"componentType":5126,
			"count":2,
			"type":"VEC3"
		},
		{
			"bufferView":21,
			"componentType":5126,
			"count":2,
			"type":"VEC4"
		},
		{
			"bufferView":22,
			"componentType":5126,
			"count":2,
			"type":"VEC3"
		},
		{
			"bufferView":23,
			"componentType":5126,
			"count":1,
			"max":[
				0.03333333333333333
			],
			"min":[
				0.03333333333333333
			],
			"type":"SCALAR"
		},
		{
			"bufferView":24,
			"componentType":5126,
			"count":1,
			"type":"VEC3"
		},
		{
			"bufferView":25,
			"componentType":5126,
			"count":1,
			"type":"VEC4"
		},
		{
			"bufferView":26,
			"componentType":5126,
			"count":1,
			"type":"VEC3"
		},
		{
			"bufferView":27,
			"componentType":5126,
			"count":1,
			"type":"VEC3"
		},
		{
			"bufferView":28,
			"componentType":5126,
			"count":1,
			"type":"VEC4"
		},
		{
			"bufferView":29,
			"componentType":5126,
			"count":1,
			"type":"VEC3"
		},
		{
			"bufferView":30,
			"componentType":5126,
			"count":1,
			"type":"VEC3"
		},
		{
			"bufferView":31,
			"componentType":5126,
			"count":1,
			"type":"VEC4"
		},
		{
			"bufferView":32,
			"componentType":5126,
			"count":1,
			"type":"VEC3"
		},
		{
			"bufferView":33,
			"componentType":5126,
			"count":1,
			"type":"VEC3"
		},
		{
			"bufferView":34,
			"componentType":5126,
			"count":1,
			"type":"VEC4"
		},
		{
			"bufferView":35,
			"componentType":5126,
			"count":1,
			"type":"VEC3"
		},
		{
			"bufferView":36,
			"componentType":5126,
			"count":1,
			"type":"VEC3"
		},
		{
			"bufferView":37,
			"componentType":5126,
			"count":1,
			"type":"VEC4"
		},
		{
			"bufferView":38,
			"componentType":5126,
			"count":1,
			"type":"VEC3"
		},
		{
			"bufferView":39,
			"componentType":5126,
			"count":1,
			"type":"VEC3"
		},
		{
			"bufferView":40,
			"componentType":5126,
			"count":1,
			"type":"VEC4"
		},
		{
			"bufferView":41,
			"componentType":5126,
			"count":1,
			"type":"VEC3"
		},
		{
			"bufferView":42,
			"componentType":5126,
			"count":1,
			"type":"VEC4"
		},
		{
			"bufferView":43,
			"componentType":5126,
			"count":1,
			"type":"VEC3"
		},
		{
			"bufferView":44,
			"componentType":5126,
			"count":1,
			"type":"VEC3"
		},
		{
			"bufferView":45,
			"componentType":5126,
			"count":6,
			"type":"MAT4"
		}
	],
	"bufferViews":[
		{
			"buffer":0,
			"byteLength":2700,
			"byteOffset":0,
			"target":34962
		},
		{
			"buffer":0,
			"byteLength":2700,
			"byteOffset":2700,
			"target":34962
		},
		{
			"buffer":0,
			"byteLength":1800,
			"byteOffset":5400,
			"target":34962
		},
		{
			"buffer":0,
			"byteLength":1368,
			"byteOffset":7200,
			"target":34963
		},
		{
			"buffer":0,
			"byteLength":8,
			"byteOffset":8568
		},
		{
			"buffer":0,
			"byteLength":24,
			"byteOffset":8576
		},
		{
			"buffer":0,
			"byteLength":32,
			"byteOffset":8600
		},
		{
			"buffer":0,
			"byteLength":24,
			"byteOffset":8632
		},
		{
			"buffer":0,
			"byteLength":24,
			"byteOffset":8656
		},
		{
			"buffer":0,
			"byteLength":32,
			"byteOffset":8680
		},
		{
			"buffer":0,
			"byteLength":24,
			"byteOffset":8712
		},
		{
			"buffer":0,
			"byteLength":24,
			"byteOffset":8736
		},
		{
			"buffer":0,
			"byteLength":32,
			"byteOffset":8760
		},
		{
			"buffer":0,
			"byteLength":24,
			"byteOffset":8792
		},
		{
			"buffer":0,
			"byteLength":24,
			"byteOffset":8816
		},
		{
			"buffer":0,
			"byteLength":32,
			"byteOffset":8840
		},
		{
			"buffer":0,
			"byteLength":24,
			"byteOffset":8872
		},
		{
			"buffer":0,
			"byteLength":24,
			"byteOffset":8896
		},
		{
			"buffer":0,
			"byteLength":32,
			"byteOffset":8920
		},
		{
			"buffer":0,
			"byteLength":24,
			"byteOffset":8952
		},
		{
			"buffer":0,
			"byteLength":24,
			"byteOffset":8976
		},
		{
			"buffer":0,
			"byteLength":32,
			"byteOffset":9000
		},
		{
			"buffer":0,
			"byteLength":24,
			"byteOffset":9032
		},
		{
			"buffer":0,
			"byteLength":4,
			"byteOffset":9056
		},
		{
			"buffer":0,
			"byteLength":12,
			"byteOffset":9060
		},
		{
			"buffer":0,
			"byteLength":16,
			"byteOffset":9072
		},
		{
			"buffer":0,
			"byteLength":12,
			"byteOffset":9088
		},
		{
			"buffer":0,
			"byteLength":12,
			"byteOffset":9100
		},
		{
			"buffer":0,
			"byteLength":16,
			"byteOffset":9112
		},
		{
			"buffer":0,
			"byteLength":12,
			"byteOffset":9128
		},
		{
			"buffer":0,
			"byteLength":12,
			"byteOffset":9140
		},
		{
			"buffer":0,
			"byteLength":16,
			"byteOffset":9152
		},
		{
			"buffer":0,
			"byteLength":12,
			"byteOffset":9168
		},
		{
			"buffer":0,
			"byteLength":12,
			"byteOffset":9180
		},
		{
			"buffer":0,
			"byteLength":16,
			"byteOffset":9192
		},
		{
			"buffer":0,
			"byteLength":12,
			"byteOffset":9208
		},
		{
			"buffer":0,
			"byteLength":12,
			"byteOffset":9220
		},
		{
			"buffer":0,
			"byteLength":16,
			"byteOffset":9232
		},
		{
			"buffer":0,
			"byteLength":12,
			"byteOffset":9248
		},
		{
			"buffer":0,
			"byteLength":12,
			"byteOffset":9260
		},
		{
			"buffer":0,
			"byteLength":16,
			"byteOffset":9272
		},
		{
			"buffer":0,
			"byteLength":12,
			"byteOffset":9288
		},
		{
			"buffer":0,
			"byteLength":16,
			"byteOffset":9300
		},
		{
			"buffer":0,
			"byteLength":12,
			"byteOffset":9316
		},
		{
			"buffer":0,
			"byteLength":12,
			"byteOffset":9328
		},
		{
			"buffer":0,
			"byteLength":384,
			"byteOffset":9340
		}
	],
	"samplers":[
		{
			"magFilter":9729,
			"minFilter":9987
		}
	],
	"buffers":[
		{
			"byteLength":9724,
			"uri":"ASword.bin"
		}
	]
}
