{
	"asset":{
		"generator":"Khronos glTF Blender I/O v4.0.44",
		"version":"2.0"
	},
	"scene":0,
	"scenes":[
		{
			"name":"Scene",
			"nodes":[
				7
			]
		}
	],
	"nodes":[
		{
			"name":"Blade4",
			"translation":[
				0,
				1,
				0
			]
		},
		{
			"children":[
				0
			],
			"name":"Blade3",
			"translation":[
				0,
				1,
				0
			]
		},
		{
			"children":[
				1
			],
			"name":"Blade2",
			"translation":[
				0,
				1,
				0
			]
		},
		{
			"children":[
				2
			],
			"name":"Blade1",
			"translation":[
				0,
				1,
				0
			]
		},
		{
			"children":[
				3
			],
			"name":"Blade0",
			"translation":[
				0,
				2,
				0
			]
		},
		{
			"children":[
				4
			],
			"name":"Hilt",
			"rotation":[
				-0.7071067690849304,
				0,
				0,
				0.7071067690849304
			]
		},
		{
			"children":[
				5
			],
			"name":"\u30a2\u30fc\u30de\u30c1\u30e5\u30a2",
			"scale":[
				1.343999981880188,
				0.9408000111579895,
				1.0539125204086304
			]
		},
		{
			"children":[
				6
			],
			"mesh":0,
			"name":"Sword",
			"scale":[
				0.7440475821495056,
				1.062925100326538,
				0.9488452672958374
			]
		}
	],
	"materials":[
		{
			"doubleSided":true,
			"name":"Material",
			"pbrMetallicRoughness":{
				"baseColorTexture":{
					"index":0
				},
				"metallicFactor":0.30000001192092896,
				"roughnessFactor":0.5
			}
		}
	],
	"meshes":[
		{
			"name":"Sword",
			"primitives":[
				{
					"attributes":{
						"POSITION":0,
						"NORMAL":1,
						"TEXCOORD_0":2
					},
					"indices":3,
					"material":0
				}
			]
		}
	],
	"textures":[
		{
			"sampler":0,
			"source":0
		}
	],
	"images":[
		{
			"mimeType":"image/png",
			"name":"Sword",
			"uri":"Sword.png"
		}
	],
	"skins":[
		{
			"inverseBindMatrices":4,
			"joints":[
				5,
				4,
				3,
				2,
				1,
				0
			],
			"name":"\u30a2\u30fc\u30de\u30c1\u30e5\u30a2"
		}
	],
	"accessors":[
		{
			"bufferView":0,
			"componentType":5126,
			"count":565,
			"max":[
				0.6720000505447388,
				0.47040003538131714,
				0.4128953516483307
			],
			"min":[
				-0.6720000505447388,
				-0.4704000651836395,
				-8.01840591430664
			],
			"type":"VEC3"
		},
		{
			"bufferView":1,
			"componentType":5126,
			"count":565,
			"type":"VEC3"
		},
		{
			"bufferView":2,
			"componentType":5126,
			"count":565,
			"type":"VEC2"
		},
		{
			"bufferView":3,
			"componentType":5123,
			"count":1032,
			"type":"SCALAR"
		},
		{
			"bufferView":4,
			"componentType":5126,
			"count":6,
			"type":"MAT4"
		}
	],
	"bufferViews":[
		{
			"buffer":0,
			"byteLength":6780,
			"byteOffset":0,
			"target":34962
		},
		{
			"buffer":0,
			"byteLength":6780,
			"byteOffset":6780,
			"target":34962
		},
		{
			"buffer":0,
			"byteLength":4520,
			"byteOffset":13560,
			"target":34962
		},
		{
			"buffer":0,
			"byteLength":2064,
			"byteOffset":18080,
			"target":34963
		},
		{
			"buffer":0,
			"byteLength":384,
			"byteOffset":20144
		}
	],
	"samplers":[
		{
			"magFilter":9729,
			"minFilter":9987
		}
	],
	"buffers":[
		{
			"byteLength":20528,
			"uri":"sword.bin"
		}
	]
}
