# Blender 3.5.0
# www.blender.org
mtllib emptyAxis.mtl
o Axis
v 0.066667 0.933333 -0.066667
v 0.066667 0.933333 0.066667
v 0.066667 0.133333 -0.066667
v -0.066667 0.933333 -0.066667
v -0.066667 0.933333 0.066667
v -0.066667 0.133333 -0.066667
v -0.066667 0.133333 0.066667
v 0.066667 0.133333 0.066667
v 0.066667 0.066667 0.133333
v 0.066667 -0.066667 0.133333
v 0.066667 0.066667 0.933333
v 0.066667 -0.066667 0.933333
v -0.066667 0.066667 0.133333
v -0.066667 -0.066667 0.133333
v -0.066667 0.066667 0.933333
v -0.066667 -0.066667 0.933333
v -0.133333 0.066667 -0.066667
v -0.133333 0.066667 0.066667
v -0.133333 -0.066667 -0.066667
v -0.933333 0.066667 -0.066667
v -0.933333 0.066667 0.066667
v -0.933333 -0.066667 -0.066667
v -0.933333 -0.066667 0.066667
v -0.133333 -0.066667 0.066667
vn -0.0000 1.0000 -0.0000
vn 1.0000 -0.0000 -0.0000
vn -0.0000 -0.0000 -1.0000
vn -1.0000 -0.0000 -0.0000
vn -0.0000 -1.0000 -0.0000
vn -0.0000 -0.0000 1.0000
vt 0.166667 0.500000
vt 0.083333 0.500000
vt 0.166667 0.583333
vt 0.333334 0.500000
vt 0.000000 0.500000
vt 0.083333 0.000000
vt 0.166667 0.500000
vt 0.250000 0.500000
vt 0.166667 0.500000
vt 0.250000 0.583333
vt 0.250000 0.500000
vt 0.166667 0.000000
vt 0.083333 0.500000
vt 0.083333 0.583333
vt 0.250000 0.000000
vt 0.000000 0.000000
vt 0.166667 0.583333
vt 0.333334 0.000000
vt 0.833334 0.500000
vt 0.333333 0.500000
vt 0.416667 0.000000
vt 0.916667 0.500000
vt 0.416667 0.500000
vt 0.416667 0.000000
vt 0.250000 0.583333
vt 0.416667 0.500000
vt 0.833334 0.000000
vt 0.916667 0.000000
vt 0.333333 0.583333
vt 0.416667 0.500000
vt 0.333333 0.583333
vt 0.000000 0.500000
vt 0.500000 0.000000
vt 0.083333 0.500000
vt 0.416667 0.583333
vt 0.333334 0.000000
vt 0.000000 1.000000
vt 0.250000 0.500000
vt 0.500000 0.500000
vt 0.333333 0.500000
vt 0.083333 1.000000
vt 0.500000 0.500000
vt 0.583334 0.500000
vt 0.750000 0.500000
vt 0.500000 0.500000
vt 0.666667 0.000000
vt 0.500000 0.583333
vt 0.583334 0.500000
vt 0.833334 0.500000
vt 0.666667 0.000000
vt 0.750000 0.000000
vt 0.583334 0.000000
vt 0.416667 0.583333
vt 0.416667 0.500000
vt 0.500000 0.000000
vt 0.666667 0.500000
vt 0.833334 0.000000
vt 0.500000 0.583333
vt 0.666667 0.500000
vt 0.583334 0.500000
vt 0.500000 0.500000
vt 0.750000 0.500000
vt 0.583334 0.583333
vt 0.583334 0.000000
vt 0.750000 0.000000
s 0
usemtl Material.001
f 1/1/1 5/10/1 2/3/1
f 2/5/2 3/6/2 1/2/2
f 1/2/3 6/12/3 4/9/3
f 4/9/4 7/15/4 5/11/4
f 6/13/5 8/17/5 7/14/5
f 5/11/6 8/18/6 2/4/6
f 11/27/2 10/22/2 9/19/2
f 15/38/6 12/29/6 11/25/6
f 13/32/4 16/41/4 15/37/4
f 9/20/3 14/35/3 13/31/3
f 9/21/1 15/39/1 11/26/1
f 14/36/5 12/30/5 16/40/5
f 21/55/5 17/43/5 18/45/5
f 19/48/4 18/47/4 17/42/4
f 22/57/6 17/44/6 20/51/6
f 23/61/2 20/53/2 21/54/2
f 24/64/1 22/59/1 23/60/1
f 24/65/3 21/56/3 18/46/3
f 1/1/1 4/8/1 5/10/1
f 2/5/2 8/16/2 3/6/2
f 1/2/3 3/6/3 6/12/3
f 4/9/4 6/12/4 7/15/4
f 6/13/5 3/7/5 8/17/5
f 5/11/6 7/15/6 8/18/6
f 11/27/2 12/28/2 10/22/2
f 15/38/6 16/40/6 12/29/6
f 13/32/4 14/34/4 16/41/4
f 9/20/3 10/23/3 14/35/3
f 9/21/1 13/33/1 15/39/1
f 14/36/5 10/24/5 12/30/5
f 21/55/5 20/52/5 17/43/5
f 19/48/4 24/63/4 18/47/4
f 22/57/6 19/49/6 17/44/6
f 23/61/2 22/58/2 20/53/2
f 24/64/1 19/50/1 22/59/1
f 24/65/3 23/62/3 21/56/3
